<svg xmlns="http://www.w3.org/2000/svg" xmlns:xlink="http://www.w3.org/1999/xlink" viewBox="0,0,256,256" width="96px" height="96px"><g fill="#dddddd" fill-rule="nonzero" stroke="none" stroke-width="1" stroke-linecap="butt" stroke-linejoin="miter" stroke-miterlimit="10" stroke-dasharray="" stroke-dashoffset="0" font-family="none" font-weight="none" font-size="none" text-anchor="none" style="mix-blend-mode: normal"><g transform="scale(5.33333,5.33333)"><path d="M36.5,6h-25c-3.032,0 -5.5,2.468 -5.5,5.5v25c0,3.032 2.468,5.5 5.5,5.5h25c3.032,0 5.5,-2.468 5.5,-5.5v-25c0,-3.032 -2.468,-5.5 -5.5,-5.5zM18,34c0,0.553 -0.447,1 -1,1h-3c-0.553,0 -1,-0.447 -1,-1v-13c0,-0.553 0.447,-1 1,-1h3c0.553,0 1,0.447 1,1zM15.5,18c-1.381,0 -2.5,-1.119 -2.5,-2.5c0,-1.381 1.119,-2.5 2.5,-2.5c1.381,0 2.5,1.119 2.5,2.5c0,1.381 -1.119,2.5 -2.5,2.5zM35,34c0,0.553 -0.447,1 -1,1h-3c-0.553,0 -1,-0.447 -1,-1v-7.5c0,-1.379 -1.121,-2.5 -2.5,-2.5c-1.379,0 -2.5,1.121 -2.5,2.5v7.5c0,0.553 -0.447,1 -1,1h-3c-0.553,0 -1,-0.447 -1,-1v-13c0,-0.553 0.447,-1 1,-1h3c0.553,0 1,0.447 1,1v0.541c1.063,-0.955 2.462,-1.541 4,-1.541c3.309,0 6,2.691 6,6z"></path></g></g></svg>